<svg width="210" height="60" viewBox="0 0 210 60" fill="none" xmlns="http://www.w3.org/2000/svg">
<path d="M39.7217 59.5229H19.8012C8.82704 59.5229 0 50.5766 0 39.7217V19.8012C0 8.82704 8.94633 0 19.8012 0H39.6024C50.5766 0 59.5229 8.82704 59.5229 19.8012V39.6024C59.5229 50.5765 50.5766 59.5229 39.7217 59.5229Z" fill="white"/>
<path d="M13.5985 45.8053L11.6899 43.8967C10.9742 43.181 9.90065 43.3003 9.30423 44.1353C6.20284 48.7874 6.56069 50.5766 7.63425 51.6502C8.82709 52.7237 10.6164 53.0816 15.1492 49.9802C15.9841 49.5031 16.1034 48.3102 15.3877 47.5945L13.5985 45.8053Z" fill="#5B3D80"/>
<path d="M51.65 7.51522C51.5307 7.39594 51.5307 7.39594 51.4114 7.39594C51.4114 7.39594 51.4114 7.39594 51.2921 7.39594L51.1728 7.27666H51.0535C51.0535 7.27666 50.9343 7.27666 50.9343 7.15737H50.815C50.815 7.15737 50.6957 7.15737 50.6957 7.03809H50.5764H50.4571H50.3378H50.2185H50.0993C50.0993 7.03809 49.98 7.03809 49.8607 7.03809H49.7414C49.6221 7.03809 49.6221 7.03809 49.5028 7.03809H49.3836C49.2643 7.03809 49.145 7.03809 48.9064 7.03809H48.7871C48.6679 7.03809 48.5486 7.03809 48.4293 7.03809H48.31C48.1907 7.03809 47.9521 7.03809 47.8329 7.15737C47.8329 7.15737 47.8329 7.15737 47.7136 7.15737C47.5943 7.15737 47.475 7.27666 47.2364 7.27666H47.1172C46.9979 7.27666 46.7593 7.39594 46.5207 7.39594C46.4015 7.39594 46.1629 7.51522 45.9243 7.51522H45.805C45.6857 7.51522 45.4472 7.63451 45.3279 7.75379C45.3279 7.75379 45.3279 7.75379 45.2086 7.75379C44.97 7.87308 44.8508 7.87308 44.6122 7.99236C44.6122 7.99236 44.4929 7.99236 44.4929 8.11165C44.3736 8.23093 44.1351 8.23093 44.0158 8.35022H43.8965C43.6579 8.4695 43.4193 8.58878 43.3001 8.70807C43.3001 8.70807 43.1808 8.70807 43.1808 8.82735C42.9422 8.94663 42.8229 9.06592 42.5844 9.06592C42.5844 9.06592 42.4651 9.06592 42.4651 9.1852C42.2265 9.30449 41.9879 9.42377 41.7494 9.54306C41.7494 9.54306 41.6301 9.54306 41.6301 9.66234C41.3915 9.78163 41.2722 9.90091 41.0337 10.0202C40.9144 10.0202 40.9144 10.1395 40.7951 10.1395C40.5565 10.2588 40.318 10.378 40.0794 10.6166C40.0794 10.6166 39.9601 10.6166 39.9601 10.7359C39.7215 10.8552 39.483 10.9745 39.2444 11.0938C39.1251 11.0938 39.1251 11.213 39.0058 11.213C38.7673 11.3323 38.5287 11.5709 38.1708 11.6902C37.9323 11.8095 37.813 12.048 37.813 12.4059C37.813 12.5252 37.813 12.6444 37.9323 12.7637C38.0516 12.883 38.0516 13.0023 38.1708 13.0023C38.648 13.2409 39.0058 13.4794 39.483 13.718C39.8408 13.9566 40.0794 14.1951 40.4372 14.3144C40.9144 14.6723 41.3915 15.0301 41.8686 15.388C42.2265 15.7458 42.5844 16.1037 42.9422 16.3423C44.3736 17.7737 45.5665 19.3244 46.5207 21.1136C46.5207 21.2329 46.64 21.2329 46.64 21.2329C46.64 21.2329 46.7593 21.2329 46.7593 21.3522C46.7593 21.3522 46.7593 21.3522 46.8786 21.3522H46.9979C46.9979 21.3522 46.9979 21.3522 47.1172 21.3522H47.2364H47.3557C47.3557 21.3522 47.3557 21.3522 47.475 21.3522H47.5943C47.5943 21.3522 47.5943 21.3522 47.7136 21.3522C47.7136 21.3522 47.8329 21.3522 47.8329 21.2329L47.9522 21.1136C49.2643 19.0858 50.3378 17.1773 51.0535 15.5073C51.1728 15.1494 51.2921 14.7916 51.5307 14.553C51.65 14.1951 51.7692 13.9566 51.8885 13.5987C52.0078 13.1216 52.1271 12.7637 52.2464 12.2866C52.3657 11.5709 52.485 10.9745 52.485 10.378C52.485 9.06592 52.2464 8.11165 51.65 7.51522Z" fill="#5B3D80"/>
<path d="M35.9046 14.0759C35.4275 13.8374 34.7118 13.8374 34.3539 14.1952C32.8032 15.3881 31.1332 16.7002 29.4633 18.0123C25.7655 20.9944 22.4255 23.9765 19.3241 26.9586C14.672 26.2429 9.06565 28.0322 4.17499 32.6843C3.69785 33.1614 3.69785 33.9964 4.17499 34.4736L7.99209 38.2907C8.82708 39.1256 9.54279 39.4835 10.4971 38.5292L15.6263 43.5392L20.8748 48.7877C19.9205 49.7419 20.2784 50.4577 21.1134 51.2926L24.9305 55.1097C25.4076 55.5869 26.2426 55.5869 26.7197 55.1097C31.3718 49.9805 33.0418 44.2549 32.2068 39.6028C35.0696 36.5014 38.0517 33.0421 41.0338 29.4636C42.346 27.7936 43.6581 26.2429 44.8509 24.6922C45.2088 24.2151 45.2088 23.6187 44.9702 23.1415C42.9424 19.2052 39.841 15.9845 35.9046 14.0759ZM26.1233 36.2628C26.004 36.8592 25.7655 37.3364 25.4076 37.6942C25.169 37.9328 24.8112 38.1714 24.5726 38.2907C24.2148 38.4099 23.8569 38.5292 23.499 38.5292C23.1412 38.5292 22.7833 38.5292 22.4255 38.2907C22.0676 38.1714 21.8291 37.9328 21.4712 37.6942C21.1134 37.3364 20.7555 36.8592 20.6362 36.2628C20.5169 35.7857 20.5169 35.1893 20.7555 34.5928C20.9941 34.1157 21.3519 33.6386 21.7098 33.2807C22.1869 32.9229 22.6641 32.8036 23.2605 32.8036C23.8569 32.8036 24.334 32.9229 24.8112 33.2807C25.2883 33.5193 25.6462 33.9964 25.8847 34.4736C26.1233 35.1893 26.2426 35.6664 26.1233 36.2628ZM32.2068 30.5372C31.9682 31.0143 31.6104 31.4914 31.2525 31.8493C30.7754 32.2071 30.2983 32.3264 29.7018 32.3264C29.1054 32.3264 28.6283 32.2071 28.1511 31.8493C27.674 31.4914 27.3161 31.1336 27.0776 30.6565C26.839 30.1793 26.839 29.5829 26.839 29.1058C26.9583 28.5093 27.1969 28.0322 27.5547 27.6743C28.0319 27.1972 28.7476 26.8394 29.4633 26.8394C30.179 26.8394 30.8947 27.0779 31.4911 27.5551C31.849 27.9129 32.2068 28.3901 32.3261 28.9865C32.4454 29.4636 32.4454 30.06 32.2068 30.5372ZM38.5289 24.2151C38.2903 24.6922 37.9324 25.1694 37.5746 25.5272C37.0975 25.8851 36.6203 26.0044 36.0239 26.0044C35.4275 26.0044 34.9503 25.8851 34.4732 25.5272C33.9961 25.2887 33.6382 24.8115 33.3996 24.3344C33.1611 23.8572 33.1611 23.2608 33.1611 22.7837C33.2804 22.1873 33.5189 21.7101 33.8768 21.3523C34.3539 20.8751 35.0696 20.5173 35.7853 20.5173C36.501 20.5173 37.2167 20.7559 37.8132 21.233C38.171 21.5908 38.5289 22.068 38.6482 22.6644C38.7674 23.1415 38.6482 23.738 38.5289 24.2151Z" fill="#5B3D80"/>
<path d="M84.9205 33.1607L85.1591 36.2621C87.0676 33.8764 89.5726 32.6836 92.674 32.6836C95.4175 32.6836 97.5646 33.5186 98.8768 35.1886C100.189 36.8585 100.905 39.2442 101.024 42.5842V59.6419H93.9861V42.5842C93.9861 41.0335 93.6283 39.9599 93.0318 39.3635C92.4354 38.6478 91.3619 38.29 89.8112 38.29C87.7833 38.29 86.3519 39.1249 85.3976 40.7949V59.4033H78.3599V33.1607H84.9205Z" fill="white"/>
<path d="M115.815 54.6319C116.889 54.6319 117.843 54.3933 118.678 53.9162C119.513 53.4391 120.229 52.8426 120.587 52.0077V47.4748H117.962C114.384 47.4748 112.594 48.6677 112.356 51.1727V51.5305C112.356 52.3655 112.714 53.0812 113.31 53.6776C113.907 54.2741 114.742 54.6319 115.815 54.6319ZM121.66 59.5226C121.302 58.9261 121.064 58.0912 120.944 57.1369C119.274 59.0454 117.008 59.9997 114.264 59.9997C111.64 59.9997 109.493 59.284 107.823 57.7333C106.153 56.1826 105.318 54.3933 105.318 52.1269C105.318 49.3834 106.392 47.2363 108.42 45.6856C110.447 44.1349 113.549 43.4192 117.366 43.4192H120.587V41.8685C120.587 40.6756 120.229 39.7214 119.632 39.0057C119.036 38.29 118.082 37.9321 116.65 37.9321C115.457 37.9321 114.503 38.1707 113.907 38.7671C113.191 39.3635 112.952 40.0792 112.952 41.1528H105.915C105.915 39.6021 106.392 38.1707 107.346 36.8585C108.3 35.5464 109.612 34.5921 111.282 33.7572C112.952 33.0414 114.98 32.6836 117.127 32.6836C120.348 32.6836 122.972 33.5186 124.881 35.1886C126.789 36.8585 127.744 39.1249 127.744 42.1071V53.5584C127.744 56.0633 128.101 57.9719 128.817 59.284V59.6419H121.66V59.5226Z" fill="white"/>
<path d="M142.654 50.934L147.545 33.1606H154.821L145.994 59.5225H139.195L130.368 33.1606H137.764L142.654 50.934Z" fill="white"/>
<path d="M174.622 46.0435C174.622 43.4193 174.145 41.3914 173.31 40.1986C172.475 39.0058 171.163 38.29 169.493 38.29C167.227 38.29 165.676 39.2443 164.841 41.0336V51.4113C165.676 53.3199 167.227 54.1549 169.493 54.1549C171.759 54.1549 173.31 53.0813 174.026 50.8149C174.503 49.8606 174.622 48.1906 174.622 46.0435ZM181.66 46.5207C181.66 50.6956 180.706 54.0356 178.916 56.4213C177.127 58.8069 174.622 59.9998 171.401 59.9998C168.539 59.9998 166.272 58.9262 164.602 56.6598L164.244 59.4034H157.922V22.0674H164.96V35.4272C166.63 33.5187 168.777 32.5644 171.401 32.5644C174.622 32.5644 177.127 33.7572 178.916 36.1429C180.706 38.5286 181.66 41.8686 181.66 46.0435V46.5207Z" fill="white"/>
<path d="M197.406 38.2898C195.974 38.2898 194.901 38.7669 193.947 39.7212C193.112 40.6755 192.515 41.9876 192.277 43.7769H202.058V43.1805C202.058 41.6298 201.581 40.4369 200.746 39.6019C200.03 38.7669 198.837 38.2898 197.406 38.2898ZM198.241 59.9996C194.424 59.9996 191.203 58.8067 188.817 56.421C186.432 54.0353 185.239 50.934 185.239 46.9976V46.2819C185.239 43.6576 185.716 41.2719 186.789 39.2441C187.863 37.097 189.294 35.5463 191.084 34.4727C192.992 33.2799 195.139 32.8027 197.525 32.8027C201.104 32.8027 203.966 33.9956 205.994 36.262C208.022 38.5284 209.096 41.7491 209.096 45.924V48.7868H192.277C192.515 50.4568 193.231 51.8882 194.304 52.9618C195.497 54.0353 196.929 54.5125 198.718 54.5125C201.461 54.5125 203.489 53.5582 205.04 51.5304L208.499 55.3475C207.426 56.8982 205.994 57.9717 204.205 58.8067C202.416 59.5224 200.388 59.9996 198.241 59.9996Z" fill="white"/>
</svg>
