<svg width="26" height="30" viewBox="0 0 26 30" fill="none" xmlns="http://www.w3.org/2000/svg">
<path d="M25.4582 12.1C25.4582 12.1 23.9582 13.5 21.4082 15.15C20.7082 11.1 18.7582 6.1 14.9582 0C14.9582 0 13.7082 6.55 9.55823 12.7C7.75823 9.9 6.95823 7.7 6.95823 7.7C-6.04177 20.75 4.75823 30 11.5582 30C20.2582 30 27.9082 25.8 25.4582 12.1Z" fill="#FF9D33"/>
<path d="M20.3081 23.7004C21.0581 22.0504 21.6081 19.9004 21.7081 17.2004C21.7081 17.2004 20.6581 18.1004 18.8581 19.2504C18.3581 16.5504 17.0081 13.2504 14.3581 9.15039C14.3581 9.15039 13.5081 13.5004 10.6081 17.6504C9.3581 15.8004 8.80811 14.3004 8.80811 14.3004C6.65811 17.7004 5.80811 20.4004 5.75811 22.5504C4.55811 22.1004 3.80811 21.7504 3.80811 21.7504C5.85811 27.8504 10.1081 29.2004 12.0081 29.2004C15.4081 29.2004 18.8581 28.2004 22.2581 23.3504C22.2581 23.3004 21.5081 23.5004 20.3081 23.7004Z" fill="#FFCE31"/>
<path d="M7.90806 20.95C7.90806 20.95 9.30806 22.85 10.3581 22.4C10.3581 22.4 12.3581 19.25 15.2581 17.5C15.2581 17.5 14.6581 22.3 15.3581 23.15C16.2581 24.3 18.7081 21.9 18.7081 21.9C18.7081 24.75 15.6081 28.3 12.8081 28.3C10.1081 28.3 6.20806 25.2 7.90806 20.95Z" fill="#FFDF85"/>
<path d="M2.75798 7.54961C1.70798 5.79961 1.60798 3.59961 1.60798 3.59961C-0.892023 7.34961 0.0579766 9.44961 0.907976 10.0496C2.00798 10.8996 3.90798 9.59961 2.75798 7.54961Z" fill="#FF9D33"/>
<path d="M8.55801 3.65C8.70801 2.45 8.20801 1.25 8.20801 1.25C10.558 2.8 10.558 4.1 10.258 4.65C9.80801 5.3 8.40801 5 8.55801 3.65Z" fill="#FF9D33"/>
</svg>
