<svg width="20" height="20" viewBox="0 0 20 20" fill="none" xmlns="http://www.w3.org/2000/svg">
<path fill-rule="evenodd" clip-rule="evenodd" d="M10 1.79456C11.3316 1.74462 12.665 1.7817 13.9917 1.90558C14.6353 1.89768 15.2746 2.01066 15.8765 2.23863C16.7069 2.62563 17.3743 3.29302 17.7613 4.12342C17.9893 4.72531 18.1023 5.36465 18.0944 6.00822C18.0944 7.00612 18.2054 7.33917 18.2054 9.99984C18.2554 11.3314 18.2183 12.6648 18.0944 13.9915C18.1023 14.635 17.9893 15.2744 17.7613 15.8763C17.3743 16.7067 16.7069 17.374 15.8765 17.761C15.2746 17.989 14.6353 18.102 13.9917 18.0941C12.9938 18.0941 12.6607 18.2051 10 18.2051C8.66844 18.2551 7.33504 18.218 6.00832 18.0941C5.36474 18.102 4.72539 17.989 4.12349 17.761C3.29307 17.374 2.62568 16.7067 2.23867 15.8763C2.01069 15.2744 1.89771 14.635 1.90561 13.9915C1.90561 12.9936 1.79459 12.6605 1.79459 9.99984C1.74465 8.6683 1.78173 7.33492 1.90561 6.00822C1.89771 5.36465 2.01069 4.72531 2.23867 4.12342C2.43212 3.71222 2.69453 3.33716 3.01455 3.0145C3.27444 2.62657 3.66998 2.34983 4.12349 2.23863C4.72539 2.01066 5.36474 1.89768 6.00832 1.90558C7.33504 1.7817 8.66844 1.74462 10 1.79456V1.79456ZM10 0.020787C8.63146 -0.0279871 7.2612 0.00909128 5.8973 0.131804C5.06423 0.129801 4.2378 0.279867 3.45863 0.574624C2.7858 0.794143 2.17685 1.17484 1.68482 1.68355C1.17548 2.17578 0.794332 2.78518 0.574634 3.45857C0.226815 4.22207 0.0746257 5.06016 0.131806 5.8972C0.00909143 7.26108 -0.0279876 8.63132 0.0207873 9.99984C-0.0279876 11.3684 0.00909143 12.7386 0.131806 14.1025C0.13005 14.936 0.280544 15.7629 0.575881 16.5424C0.795404 17.2152 1.1761 17.8241 1.68482 18.3161C2.17685 18.8248 2.7858 19.2055 3.45863 19.4251C4.23811 19.7204 5.06498 19.8709 5.89854 19.8691C7.26206 19.9914 8.6319 20.028 10 19.9789C11.3685 20.0277 12.7388 19.9906 14.1027 19.8679C14.9363 19.8696 15.7631 19.7191 16.5426 19.4238C17.2105 19.1937 17.8172 18.8146 18.3166 18.3151C18.8161 17.8156 19.1953 17.2089 19.4254 16.5411C19.7207 15.7616 19.8712 14.9348 19.8694 14.1012C19.8682 12.9936 19.9792 12.6605 19.9792 9.99984C20.028 8.63132 19.9909 7.26108 19.8682 5.8972C19.87 5.06366 19.7195 4.2368 19.4241 3.45732C19.2046 2.78451 18.8239 2.17557 18.3152 1.68355C17.8232 1.17484 17.2142 0.794143 16.5414 0.574624C15.7622 0.279867 14.9358 0.129801 14.1027 0.131804C12.7388 0.00909128 11.3685 -0.0279871 10 0.020787V0.020787ZM10 4.8993C9.32711 4.88816 8.65885 5.01249 8.03498 5.26487C7.41111 5.51726 6.84439 5.89255 6.36851 6.36841C5.89264 6.84428 5.51735 7.41099 5.26496 8.03485C5.01257 8.65871 4.88824 9.32696 4.89937 9.99984C4.89937 11.0086 5.19852 11.9948 5.75899 12.8335C6.31945 13.6723 7.11606 14.3261 8.04808 14.7121C8.98009 15.0982 10.0057 15.1992 10.9951 15.0024C11.9845 14.8056 12.8934 14.3198 13.6067 13.6065C14.32 12.8931 14.8058 11.9843 15.0026 10.9949C15.1994 10.0055 15.0984 8.97995 14.7124 8.04795C14.3263 7.11594 13.6725 6.31935 12.8338 5.75889C11.995 5.19844 11.0088 4.8993 10 4.8993V4.8993ZM10 13.3266C9.56088 13.3347 9.12463 13.2542 8.71733 13.0899C8.31003 12.9256 7.94004 12.6809 7.62949 12.3703C7.31893 12.0598 7.07418 11.6898 6.90987 11.2825C6.74556 10.8752 6.66506 10.439 6.67318 9.99984C6.66506 9.56073 6.74556 9.12448 6.90987 8.71719C7.07418 8.3099 7.31893 7.93992 7.62949 7.62936C7.94004 7.31881 8.31003 7.07406 8.71733 6.90976C9.12463 6.74545 9.56088 6.66495 10 6.67307C10.4391 6.66495 10.8754 6.74545 11.2827 6.90976C11.69 7.07406 12.06 7.31881 12.3705 7.62936C12.6811 7.93992 12.9258 8.3099 13.0901 8.71719C13.2544 9.12448 13.3349 9.56073 13.3268 9.99984C13.3349 10.439 13.2544 10.8752 13.0901 11.2825C12.9258 11.6898 12.6811 12.0598 12.3705 12.3703C12.06 12.6809 11.69 12.9256 11.2827 13.0899C10.8754 13.2542 10.4391 13.3347 10 13.3266V13.3266ZM15.3227 3.45857C15.0814 3.45857 14.8455 3.53012 14.6449 3.66417C14.4443 3.79822 14.2879 3.98874 14.1956 4.21166C14.1032 4.43457 14.0791 4.67986 14.1261 4.91651C14.1732 5.15315 14.2894 5.37052 14.46 5.54114C14.6306 5.71175 14.848 5.82794 15.0847 5.87501C15.3213 5.92208 15.5666 5.89792 15.7895 5.80559C16.0124 5.71325 16.203 5.55689 16.337 5.35627C16.4711 5.15565 16.5426 4.91979 16.5426 4.67851C16.54 4.35577 16.4106 4.04698 16.1824 3.81876C15.9542 3.59054 15.6454 3.46118 15.3227 3.45857" fill="white"/>
</svg>
