<svg width="17" height="12" viewBox="0 0 17 12" fill="none" xmlns="http://www.w3.org/2000/svg">
<path d="M6.32557 9.23075C6.45735 9.09888 6.45735 8.96701 6.58913 8.96701C9.48836 6.06591 12.3876 3.16481 15.155 0.39558C15.5504 -2.41548e-05 15.8139 -2.41548e-05 16.3411 0.39558C16.4729 0.527448 16.7364 0.791185 16.8682 0.923053C17.1318 1.18679 17.1318 1.58239 16.8682 1.84613C16.6046 2.10987 16.3411 2.3736 16.0775 2.63734C13.0465 5.53844 10.1473 8.5714 7.11627 11.4725C6.8527 11.8681 6.45735 12 5.93022 11.8681C5.66665 11.8681 5.53487 11.7362 5.40309 11.6044C3.68991 9.89009 1.97673 8.1758 0.263553 6.46151C-0.131796 6.06591 -0.131796 5.80217 0.263553 5.40657C0.527119 5.2747 0.658902 5.01096 0.790684 4.8791C1.18603 4.48349 1.4496 4.48349 1.84495 4.8791C3.16278 6.19778 4.61239 7.64833 5.93022 8.96701C6.062 9.09888 6.19379 9.09888 6.32557 9.23075Z" fill="#5B3D80"/>
</svg>
