<?xml version="1.0" encoding="UTF-8"?>
<svg xmlns="http://www.w3.org/2000/svg" xmlns:xlink="http://www.w3.org/1999/xlink" width="10px" height="7px" viewBox="0 0 9 7" version="1.1">
<g id="surface1">
<path style=" stroke:none;fill-rule:nonzero;fill:rgb(35.686275%,23.921569%,50.196078%);fill-opacity:1;" d="M 3.347656 5.382812 C 3.417969 5.308594 3.417969 5.230469 3.488281 5.230469 C 5.023438 3.539062 6.558594 1.847656 8.023438 0.230469 C 8.234375 0 8.371094 0 8.652344 0.230469 C 8.722656 0.308594 8.859375 0.460938 8.929688 0.539062 C 9.070312 0.691406 9.070312 0.921875 8.929688 1.078125 C 8.789062 1.230469 8.652344 1.382812 8.511719 1.539062 C 6.90625 3.230469 5.371094 5 3.765625 6.691406 C 3.628906 6.921875 3.417969 7 3.140625 6.921875 C 3 6.921875 2.929688 6.847656 2.859375 6.769531 C 1.953125 5.769531 1.046875 4.769531 0.140625 3.769531 C -0.0703125 3.539062 -0.0703125 3.382812 0.140625 3.152344 C 0.277344 3.078125 0.347656 2.921875 0.417969 2.847656 C 0.628906 2.617188 0.765625 2.617188 0.976562 2.847656 C 1.675781 3.617188 2.441406 4.460938 3.140625 5.230469 C 3.210938 5.308594 3.277344 5.308594 3.347656 5.382812 Z M 3.347656 5.382812 "/>
</g>
</svg>
