<svg width="352" height="114" viewBox="0 0 352 114" fill="none" xmlns="http://www.w3.org/2000/svg">
<g clip-path="url(#clip0_1308_643)">
<path d="M156.426 45.1043L156.814 49.6891C159.789 46.0956 163.671 44.3608 168.717 44.3608C173.116 44.3608 176.35 45.5999 178.55 48.0782C180.749 50.5565 181.784 54.2739 181.784 59.1065V84.7565H170.787V59.3543C170.787 57.1238 170.269 55.513 169.234 54.5217C168.199 53.5304 166.517 53.0347 164.188 53.0347C161.083 53.0347 158.754 54.2738 157.202 56.876V84.7565H146.075V45.1043H156.426Z" fill="#5B3D80"/>
<path d="M205.073 77.3217C206.755 77.3217 208.178 76.95 209.601 76.3304C211.025 75.5869 212.06 74.7195 212.707 73.4804V66.6652H208.566C203.003 66.6652 200.157 68.5239 199.768 72.1173V72.7369C199.768 74.1 200.286 75.0913 201.192 75.9586C201.968 76.95 203.391 77.3217 205.073 77.3217ZM214.13 84.7565C213.612 83.7652 213.224 82.65 212.965 81.163C210.378 84.013 206.884 85.5 202.615 85.5C198.604 85.5 195.24 84.3847 192.523 82.1543C189.935 79.9239 188.512 77.0739 188.512 73.6043C188.512 69.3913 190.194 66.1695 193.429 63.9391C196.663 61.7086 201.45 60.5934 207.531 60.5934H212.577V58.2391C212.577 56.3804 212.06 54.8934 211.025 53.9021C210.119 52.7869 208.566 52.2912 206.367 52.2912C204.556 52.2912 203.003 52.663 201.968 53.5304C200.933 54.3978 200.415 55.513 200.415 56.9999H189.418C189.418 54.6456 190.194 52.5391 191.617 50.6804C193.041 48.6978 195.24 47.2108 197.828 46.0956C200.545 44.9804 203.52 44.3608 206.884 44.3608C211.93 44.3608 216.071 45.5999 219.046 48.0782C222.022 50.5565 223.575 53.9021 223.575 58.363V75.5869C223.575 79.3043 224.092 82.1543 225.257 84.1369V84.7565H214.13Z" fill="#5B3D80"/>
<path d="M246.993 71.8695L254.756 45.1043H266.271L252.298 84.7565H241.818L227.844 45.1043H239.359L246.993 71.8695Z" fill="#5B3D80"/>
<path d="M297.323 64.5587C297.323 60.5935 296.676 57.6196 295.382 55.7609C294.088 53.9022 292.018 53.0348 289.431 53.0348C285.937 53.0348 283.479 54.3978 282.185 57.1239V72.737C283.479 75.463 285.937 76.95 289.56 76.95C293.183 76.95 295.512 75.2152 296.547 71.8696C297.064 70.2587 297.323 67.7804 297.323 64.5587ZM308.45 65.3022C308.45 71.6217 307.027 76.5783 304.18 80.1717C301.334 83.6413 297.452 85.5 292.277 85.5C287.749 85.5 284.255 83.8891 281.538 80.5435L281.021 84.7565H271.058V28.5H282.056V48.6978C284.644 45.8478 288.007 44.3609 292.148 44.3609C297.194 44.3609 301.204 46.0957 304.051 49.6891C306.897 53.2826 308.32 58.2391 308.32 64.6826V65.3022H308.45Z" fill="#5B3D80"/>
<path d="M333.032 52.9108C330.833 52.9108 329.021 53.6543 327.727 55.0173C326.434 56.3804 325.528 58.4869 325.14 61.0891H340.536V60.2217C340.536 57.8673 339.76 56.1326 338.595 54.7695C337.172 53.6543 335.361 52.9108 333.032 52.9108ZM334.326 85.5C328.245 85.5 323.328 83.7652 319.447 80.1717C315.695 76.5782 313.754 71.8695 313.754 65.9217V64.9304C313.754 60.9652 314.53 57.3717 316.212 54.2739C317.765 51.176 320.094 48.6978 323.07 46.963C326.045 45.2282 329.409 44.3608 333.161 44.3608C338.854 44.3608 343.253 46.0956 346.488 49.4412C349.722 52.9108 351.404 57.7434 351.404 63.9391V68.276H325.01C325.398 70.8782 326.434 72.9847 328.245 74.4717C330.056 76.0826 332.385 76.826 335.102 76.826C339.372 76.826 342.736 75.3391 345.065 72.3652L350.499 78.1891C348.817 80.4195 346.617 82.1543 343.771 83.5173C340.924 84.8804 337.69 85.5 334.326 85.5Z" fill="#5B3D80"/>
</g>
<g clip-path="url(#clip1_1308_643)">
<path d="M81.5587 114H33.8912C15.5134 114 0.724976 99.2116 0.724976 80.8337V33.1662C0.724976 14.7884 15.5134 0 33.8912 0H81.5587C99.793 0 114.725 14.7884 114.725 33.1662V80.8337C114.725 99.2116 99.9366 114 81.5587 114Z" fill="#5B3D80"/>
<path d="M28.1476 86.4332L24.7018 82.9874C23.4096 81.6952 21.3995 81.9823 20.3945 83.4181C14.795 91.8891 15.3693 95.1914 17.3794 97.2015C19.3894 99.2116 22.6917 99.7859 31.1627 94.0428C32.5985 93.0378 32.8857 91.0277 31.5935 89.7355L28.1476 86.4332Z" fill="#16F2C7"/>
<path d="M87.5886 16.0805C87.8758 15.9369 88.3065 15.7933 88.5937 15.7933C88.3065 15.9369 87.8758 16.0805 87.5886 16.0805Z" fill="#16F2C7"/>
<path d="M85.1477 17.0854C85.5784 16.9418 85.8656 16.7983 86.2963 16.6547C85.8656 16.7983 85.4348 16.9418 85.1477 17.0854Z" fill="#16F2C7"/>
<path d="M89.0243 41.4936L88.8807 41.35C88.8807 41.35 89.0243 41.35 89.0243 41.4936Z" fill="#16F2C7"/>
<path d="M86.2964 16.6548C86.5835 16.5112 86.8707 16.3676 87.3014 16.3676C87.0143 16.3676 86.7271 16.5112 86.2964 16.6548Z" fill="#16F2C7"/>
<path d="M89.3115 41.6373C89.3115 41.6373 89.1679 41.6373 89.1679 41.4937C89.3115 41.4937 89.3115 41.4937 89.3115 41.6373Z" fill="#16F2C7"/>
<path d="M88.5935 15.7934C88.8806 15.6498 89.3113 15.6498 89.5985 15.5062C89.3113 15.6498 88.8806 15.7934 88.5935 15.7934Z" fill="#16F2C7"/>
<path d="M90.7469 15.2191C91.034 15.2191 91.3212 15.0755 91.6084 15.0755C91.4648 15.2191 91.1776 15.2191 90.7469 15.2191Z" fill="#16F2C7"/>
<path d="M89.8858 15.5064C90.173 15.5064 90.4601 15.3629 90.7473 15.3629C90.4601 15.3629 90.173 15.3629 89.8858 15.5064Z" fill="#16F2C7"/>
<path d="M83.8562 17.6601C84.1433 17.5165 84.5741 17.3729 84.8612 17.2293C84.4305 17.3729 84.1433 17.5165 83.8562 17.6601Z" fill="#16F2C7"/>
<path d="M78.113 20.5315C78.5437 20.3879 78.8308 20.1008 79.2616 19.9572C78.9744 20.1008 78.5437 20.2444 78.113 20.5315Z" fill="#16F2C7"/>
<path d="M73.231 23.5466C73.6617 23.2595 74.236 22.9723 74.6667 22.6852C74.236 22.8288 73.8053 23.2595 73.231 23.5466Z" fill="#16F2C7"/>
<path d="M79.5482 19.8135C79.979 19.5263 80.4097 19.3827 80.8404 19.0956C80.4097 19.3827 79.979 19.5263 79.5482 19.8135Z" fill="#16F2C7"/>
<path d="M76.5337 21.5366C76.9645 21.2494 77.3952 20.9623 77.8259 20.8187C77.3952 20.9623 76.9645 21.2494 76.5337 21.5366Z" fill="#16F2C7"/>
<path d="M88.7368 41.2065C88.5933 41.0629 88.5933 41.0629 88.4497 40.9193C88.5933 41.0629 88.7368 41.0629 88.7368 41.2065Z" fill="#16F2C7"/>
<path d="M82.4201 18.2343C82.8509 18.0908 83.2816 17.8036 83.5688 17.66C83.138 17.9472 82.8509 18.0908 82.4201 18.2343Z" fill="#16F2C7"/>
<path d="M80.1223 30.4383C79.2608 29.7204 78.3994 29.0026 77.5379 28.4283C78.3994 29.0026 79.2608 29.7204 80.1223 30.4383Z" fill="#16F2C7"/>
<path d="M81.1272 18.9521C81.4143 18.8085 81.8451 18.665 82.1322 18.3778C81.7015 18.665 81.4143 18.8085 81.1272 18.9521Z" fill="#16F2C7"/>
<path d="M90.7475 41.2066C90.6039 41.3502 90.6039 41.3502 90.7475 41.2066C90.6039 41.3502 90.6039 41.3502 90.7475 41.2066Z" fill="#16F2C7"/>
<path d="M96.0598 15.5062C96.2034 15.5062 96.2034 15.6498 96.347 15.6498C96.2034 15.5062 96.0598 15.5062 96.0598 15.5062Z" fill="#16F2C7"/>
<path d="M96.9215 15.937C97.0651 15.937 97.0651 16.0805 97.2087 16.0805C97.0651 16.0805 97.0651 15.937 96.9215 15.937Z" fill="#16F2C7"/>
<path d="M97.3519 16.224C97.4955 16.3676 97.6391 16.3676 97.7827 16.5112C97.6391 16.3676 97.4955 16.224 97.3519 16.224Z" fill="#16F2C7"/>
<path d="M96.4903 15.6499C96.6339 15.6499 96.6339 15.7935 96.7775 15.7935C96.6339 15.7935 96.6339 15.6499 96.4903 15.6499Z" fill="#16F2C7"/>
<path d="M75.0977 22.398C75.5285 22.1108 75.9592 21.8237 76.2463 21.6801C75.9592 21.8237 75.5285 22.1108 75.0977 22.398Z" fill="#16F2C7"/>
<path d="M95.4854 15.3629C95.629 15.3629 95.629 15.3629 95.7726 15.5064C95.7726 15.3629 95.629 15.3629 95.4854 15.3629Z" fill="#16F2C7"/>
<path d="M77.5381 28.4282C76.9638 27.9974 76.3895 27.5667 75.8152 27.2796C76.3895 27.5667 76.9638 27.9974 77.5381 28.4282Z" fill="#16F2C7"/>
<path d="M72.8005 25.4132C72.6569 25.2696 72.6569 24.9824 72.6569 24.6953C72.6569 24.9824 72.8005 25.126 72.8005 25.4132Z" fill="#16F2C7"/>
<path d="M97.9262 27.1361C97.7826 27.7104 97.4955 28.2847 97.3519 28.8591C97.4955 28.2847 97.7826 27.7104 97.9262 27.1361Z" fill="#16F2C7"/>
<path d="M99.2186 21.3928C99.2186 22.3978 98.9315 23.5464 98.6443 24.8386C98.9315 23.5464 99.2186 22.3978 99.2186 21.3928Z" fill="#16F2C7"/>
<path d="M74.667 22.5416C74.8106 22.398 74.9542 22.398 75.0977 22.2544C74.9542 22.398 74.8106 22.5416 74.667 22.5416Z" fill="#16F2C7"/>
<path d="M98.6434 24.8387C98.4998 25.5566 98.2127 26.418 97.9255 27.2795C98.2127 26.418 98.4998 25.5566 98.6434 24.8387Z" fill="#16F2C7"/>
<path d="M90.3169 41.4937H90.1734C90.1734 41.6373 90.1734 41.4937 90.3169 41.4937Z" fill="#16F2C7"/>
<path d="M90.6034 41.35L90.4599 41.4936C90.4599 41.4936 90.4599 41.35 90.6034 41.35Z" fill="#16F2C7"/>
<path d="M88.8807 41.3502C88.8807 41.2066 88.7371 41.2066 88.8807 41.3502C88.7371 41.2066 88.8807 41.2066 88.8807 41.3502Z" fill="#16F2C7"/>
<path d="M90.8909 40.9193C90.8909 41.0629 90.7473 41.0629 90.6037 41.2065C90.7473 41.2065 90.8909 41.0629 90.8909 40.9193Z" fill="#16F2C7"/>
<path d="M97.3519 28.859C97.0648 29.4333 96.9212 30.0076 96.634 30.7255C96.7776 30.1512 97.0648 29.5769 97.3519 28.859Z" fill="#16F2C7"/>
<path d="M95.7723 15.3629C95.7723 15.3629 95.9159 15.3629 95.9159 15.5064C95.9159 15.5064 95.9159 15.3629 95.7723 15.3629Z" fill="#16F2C7"/>
<path d="M94.7676 15.0755C94.9112 15.0755 94.9112 15.0755 95.0548 15.0755C94.9112 15.2191 94.7676 15.0755 94.7676 15.0755Z" fill="#16F2C7"/>
<path d="M96.3469 15.6499C96.3469 15.6499 96.4904 15.6499 96.4904 15.7935C96.4904 15.6499 96.3469 15.6499 96.3469 15.6499Z" fill="#16F2C7"/>
<path d="M91.7523 15.2191C91.8959 15.2191 91.8959 15.2191 92.0395 15.2191C91.8959 15.0755 91.7523 15.0755 91.7523 15.2191Z" fill="#16F2C7"/>
<path d="M72.8006 25.4131C72.9442 25.5566 73.0877 25.8438 73.3749 25.8438C74.2364 26.2745 74.9543 26.7052 75.6721 27.136C74.9543 26.7052 74.0928 26.2745 73.3749 25.8438C73.2313 25.7002 72.9442 25.5566 72.8006 25.4131Z" fill="#16F2C7"/>
<path d="M97.6389 16.5113C98.7875 17.6599 99.2183 19.2393 99.2183 21.3929C99.3618 19.2393 98.7875 17.6599 97.6389 16.5113Z" fill="#16F2C7"/>
<path d="M96.7777 15.7933C96.7777 15.7933 96.9213 15.7933 96.9213 15.9369L96.7777 15.7933Z" fill="#16F2C7"/>
<path d="M97.2082 16.0806C97.2082 16.0806 97.3518 16.2242 97.2082 16.0806C97.3518 16.2242 97.2082 16.0806 97.2082 16.0806Z" fill="#16F2C7"/>
<path d="M76.2464 21.68L76.3899 21.5364C76.3899 21.5364 76.3899 21.5364 76.2464 21.68Z" fill="#16F2C7"/>
<path d="M80.8405 19.0958C80.9841 19.0958 80.9841 18.9522 81.1276 18.9522C80.9841 18.9522 80.8405 19.0958 80.8405 19.0958Z" fill="#16F2C7"/>
<path d="M82.1329 18.3777C82.2765 18.3777 82.2765 18.2342 82.4201 18.2342C82.2765 18.3777 82.1329 18.3777 82.1329 18.3777Z" fill="#16F2C7"/>
<path d="M79.261 19.9572C79.4046 19.9572 79.4046 19.8136 79.5482 19.8136C79.4046 19.8136 79.4046 19.8136 79.261 19.9572Z" fill="#16F2C7"/>
<path d="M77.8253 20.6752C77.9689 20.6752 78.1125 20.5316 78.1125 20.5316C78.1125 20.5316 77.9689 20.6752 77.8253 20.6752Z" fill="#16F2C7"/>
<path d="M83.5686 17.8036C83.7121 17.8036 83.7121 17.8036 83.8557 17.66C83.7121 17.66 83.7121 17.66 83.5686 17.8036Z" fill="#16F2C7"/>
<path d="M84.7164 17.2293C84.8599 17.2293 84.8599 17.0857 85.0035 17.0857C85.0035 17.0857 84.8599 17.2293 84.7164 17.2293Z" fill="#16F2C7"/>
<path d="M87.3016 16.2242C87.4452 16.2242 87.4452 16.2242 87.5888 16.0806C87.4452 16.2242 87.4452 16.2242 87.3016 16.2242Z" fill="#16F2C7"/>
<path d="M97.6389 16.5113C97.4953 16.3677 97.3517 16.2241 97.2081 16.2241C97.2081 16.2241 97.0646 16.2241 97.0646 16.0806C96.921 16.0806 96.921 15.937 96.7774 15.937C96.7774 15.937 96.6338 15.937 96.6338 15.7934C96.4903 15.7934 96.4902 15.6498 96.3467 15.6498C96.3467 15.6498 96.2031 15.6498 96.2031 15.5063C96.0595 15.5063 96.0595 15.3627 95.9159 15.3627C95.9159 15.3627 95.7724 15.3627 95.7724 15.2191C95.6288 15.2191 95.6288 15.2191 95.4852 15.0755C95.3416 15.0755 95.3416 15.0755 95.1981 15.0755C95.0545 15.0755 95.0545 15.0755 94.9109 15.0755C94.7673 15.0755 94.7673 15.0755 94.6238 15.0755C94.4802 15.0755 94.3366 15.0755 94.3366 15.0755C94.193 15.0755 94.193 15.0755 94.0494 15.0755C93.9059 15.0755 93.7623 15.0755 93.6187 15.0755C93.4751 15.0755 93.4751 15.0755 93.3316 15.0755C93.0444 15.0755 92.7573 15.0755 92.6137 15.0755H92.4701C92.1829 15.0755 92.0394 15.0755 91.7522 15.0755C91.6086 15.0755 91.6086 15.0755 91.4651 15.0755C91.1779 15.0755 90.8908 15.2191 90.6036 15.2191H90.46C90.1729 15.2191 89.8857 15.3627 89.5986 15.3627C89.455 15.3627 89.455 15.3627 89.3114 15.3627C89.0243 15.5063 88.5935 15.5063 88.3064 15.6498C88.0192 15.7934 87.5885 15.7934 87.3013 15.937C87.1578 15.937 87.1578 15.937 87.0142 16.0806C86.727 16.2241 86.4399 16.3677 86.0091 16.3677H85.8656C85.4348 16.5113 85.1477 16.6549 84.717 16.7985C84.5734 16.7985 84.5734 16.942 84.4298 16.942C84.1426 17.0856 83.8555 17.2292 83.4248 17.3728C83.2812 17.3728 83.2812 17.3728 83.1376 17.5163C82.7069 17.6599 82.4197 17.9471 81.989 18.0906C81.8454 18.0906 81.8454 18.2342 81.7018 18.2342C81.4147 18.3778 80.984 18.5214 80.6968 18.8085C80.5532 18.8085 80.5532 18.9521 80.4096 18.9521C79.9789 19.2393 79.5482 19.3828 79.1175 19.67C78.9739 19.67 78.9739 19.8136 78.8303 19.8136C78.3996 19.9571 78.1124 20.2443 77.6817 20.3879C77.5381 20.3879 77.3945 20.5315 77.3945 20.5315C76.9638 20.8186 76.5331 21.1058 76.1023 21.2493L75.9588 21.3929C75.528 21.6801 75.0973 21.8236 74.8102 22.1108C74.6666 22.2544 74.523 22.2544 74.3794 22.3979C73.9487 22.6851 73.3744 22.9723 72.9437 23.2594C72.5129 23.5466 72.2258 23.9773 72.3693 24.5516C72.3693 24.8388 72.5129 24.9823 72.5129 25.2695C72.6565 25.4131 72.8001 25.7002 73.0872 25.7002C73.9487 26.1309 74.6666 26.5617 75.3845 26.9924C75.9588 27.4231 76.5331 27.7103 77.1074 28.141C77.9688 28.7153 78.8303 29.4332 79.6918 30.1511C80.4096 30.7254 80.984 31.2997 81.7018 32.0176C84.2862 34.602 86.4399 37.4735 88.1628 40.6322C88.1628 40.7758 88.3064 40.9194 88.4499 40.9194C88.4499 40.9194 88.4499 40.9194 88.5935 41.0629L88.7371 41.2065H88.8807C88.8807 41.2065 89.0243 41.2065 89.0243 41.3501H89.1678H89.3114H89.455H89.5986H89.7421H89.8857L90.0293 41.2065C90.0293 41.2065 90.0293 41.2065 90.1729 41.2065C90.3164 41.0629 90.3164 41.0629 90.46 40.9194C92.7573 37.1864 94.7673 33.7405 96.0595 30.7254C96.3467 30.1511 96.6338 29.5768 96.7774 28.8589C97.0646 28.2846 97.2081 27.7103 97.3517 27.136C97.6389 26.2745 97.926 25.5566 98.0696 24.6952C98.3567 23.403 98.5003 22.2544 98.6439 21.2493C99.3618 19.2393 98.7875 17.6599 97.6389 16.5113Z" fill="#16F2C7"/>
<path d="M69.0672 28.5716C68.0622 28.1409 67.0571 28.2845 66.1957 28.8588C63.3241 31.156 60.309 33.4533 57.2939 35.8941C50.5458 41.35 44.372 46.9495 38.7725 52.2618C30.3015 50.9696 20.1075 54.2719 11.0622 62.5993C10.0571 63.4608 10.0571 65.0401 11.0622 65.9016L18.0974 72.7933C19.6768 74.3726 20.969 74.9469 22.6919 73.224L32.0244 82.4129L41.644 91.889C39.9211 93.6119 40.4954 94.9041 42.0748 96.4835L49.11 103.519C49.9715 104.38 51.5508 104.38 52.4123 103.375C60.8833 94.0426 64.042 83.5615 62.4627 75.0905C67.775 69.3474 73.0874 63.1736 78.5433 56.5691C80.9841 53.554 83.2813 50.6825 85.435 47.8109C86.0093 46.9495 86.1529 45.8009 85.7221 44.9394C81.9891 37.7606 76.1025 32.0175 69.0672 28.5716ZM51.1201 68.9167C50.9765 69.9218 50.5458 70.7832 49.8279 71.5011C49.3972 71.9318 48.8229 72.3626 48.2486 72.6497C47.6743 72.9369 46.9564 73.0804 46.3821 73.0804C45.6642 73.0804 45.0899 72.9369 44.372 72.7933C43.6541 72.6497 43.2234 72.219 42.6491 71.7882C41.9312 71.0704 41.3569 70.2089 41.2133 69.2039C40.9262 68.1988 41.0697 67.1938 41.3569 66.1888C41.644 65.1837 42.3619 64.4658 43.2234 63.8915C44.0848 63.3172 44.9463 63.0301 45.9513 62.8865C46.9564 62.8865 47.9614 63.1736 48.8229 63.6044C49.6843 64.1787 50.4022 64.8966 50.833 65.9016C51.1201 66.9066 51.2637 68.0553 51.1201 68.9167ZM62.3191 58.4356C62.032 59.4406 61.3141 60.1585 60.4526 60.7328C59.5911 61.3071 58.7297 61.5943 57.7246 61.7379C56.7196 61.7379 55.7146 61.4507 54.8531 61.02C53.9917 60.4457 53.2738 59.7278 52.843 58.7228C52.4123 57.8613 52.2687 56.8563 52.4123 55.8512C52.5559 54.8462 52.9866 53.9847 53.7045 53.2668C54.566 52.2618 55.8582 51.6875 57.2939 51.6875C58.5861 51.6875 60.0219 52.1182 60.8833 53.1233C61.6012 53.8412 62.1755 54.7026 62.3191 55.7077C62.7498 56.5691 62.7498 57.5742 62.3191 58.4356ZM73.8053 47.093C73.5181 48.0981 72.8002 48.816 71.9388 49.3903C71.0773 49.9646 70.2158 50.2517 69.2108 50.3953C68.2058 50.3953 67.2007 50.1082 66.3393 49.6774C65.4778 49.1031 64.7599 48.3852 64.3292 47.3802C63.8984 46.5187 63.7549 45.5137 63.8985 44.5087C64.042 43.5036 64.4728 42.6422 65.1906 41.9243C66.0521 40.9192 67.3443 40.3449 68.7801 40.3449C70.0723 40.3449 71.508 40.7757 72.3695 41.7807C73.0874 42.4986 73.6617 43.36 73.8053 44.3651C74.236 45.083 74.0924 46.088 73.8053 47.093Z" fill="#16F2C7"/>
</g>
<defs>
<clipPath id="clip0_1308_643">
<rect width="205.2" height="57" fill="white" transform="translate(146.075 28.5)"/>
</clipPath>
<clipPath id="clip1_1308_643">
<rect width="114" height="114" fill="white" transform="translate(0.724976)"/>
</clipPath>
</defs>
</svg>
