<svg width="20" height="16" viewBox="0 0 20 16" fill="none" xmlns="http://www.w3.org/2000/svg">
<path fill-rule="evenodd" clip-rule="evenodd" d="M6.33375 15.9986C7.86975 16.0123 9.3931 15.724 10.8149 15.1505C12.2366 14.5771 13.5282 13.7301 14.6143 12.6588C15.7004 11.5876 16.5592 10.3137 17.1405 8.91155C17.7218 7.50937 18.014 6.00702 18 4.49224V3.9449C18.7763 3.36197 19.4518 2.65883 20 1.8628C19.2548 2.18224 18.4701 2.40317 17.6662 2.51985C18.4926 2.00806 19.1191 1.23557 19.4438 0.328045C18.6411 0.768851 17.7816 1.10059 16.8888 1.31424C16.5127 0.896837 16.0504 0.563623 15.533 0.336968C15.0155 0.110314 14.4549 -0.00453411 13.8888 0.000136976C12.8035 0.0163582 11.7673 0.448733 10.9999 1.20561C10.2324 1.96248 9.79395 2.98436 9.7775 4.05461C9.75226 4.35123 9.79016 4.64977 9.88875 4.93109C8.25359 4.85327 6.65418 4.43168 5.1977 3.69457C3.74122 2.95747 2.46131 1.92187 1.44375 0.657187C1.07808 1.29173 0.886772 2.00943 0.888748 2.73928C0.903413 3.40162 1.07115 4.05193 1.37918 4.64068C1.6872 5.22943 2.1274 5.74109 2.66625 6.13671C1.99847 6.1234 1.34643 5.93444 0.777502 5.58937V5.58937C0.776462 6.52792 1.10967 7.43701 1.71897 8.15799C2.32827 8.87896 3.17496 9.36601 4.11125 9.53414C3.74942 9.63042 3.37401 9.66748 3 9.64385C2.73591 9.66134 2.47103 9.62396 2.2225 9.53414C2.49416 10.3462 3.01353 11.0557 3.70959 11.5656C4.40565 12.0756 5.24444 12.361 6.11125 12.383C4.65063 13.5081 2.85333 14.1245 0.999999 14.1359C0.662819 14.1538 0.324969 14.1167 0 14.0262C1.83881 15.3431 4.06158 16.0353 6.33375 15.9986Z" fill="white"/>
</svg>
